<?xml version="1.0" encoding="utf-8"?>
<!-- Generator: Adobe Illustrator 25.4.1, SVG Export Plug-In . SVG Version: 6.00 Build 0)  -->
<svg version="1.1" id="Foreground_Layer" xmlns="http://www.w3.org/2000/svg" xmlns:xlink="http://www.w3.org/1999/xlink" x="0px"
	 y="0px" viewBox="0 0 108 108" style="enable-background:new 0 0 108 108;" xml:space="preserve">
<style type="text/css">
	.st0{fill:#EEE809;}
	.st1{fill:url(#SVGID_1_);}
	.st2{fill:#00B3DC;}
	.st3{fill:#9FD18B;}
</style>
<g>
	<path class="st0" d="M64.9,31.7c-3.7,0-6.7,3-6.7,6.7c0,3.7,3,6.7,6.7,6.7c3.7,0,6.7-3,6.7-6.7C71.6,34.7,68.6,31.7,64.9,31.7z
		 M60.7,41.7c-0.1,0-0.2,0-0.3-0.1c-0.1-0.1-0.1-0.2-0.1-0.3v-5.3c0-0.2,0.1-0.3,0.3-0.3h0.2V40c0,0.5,0.4,0.8,0.8,0.8
		c0.7,0,1.7,0.1,2.5,0.9C62.8,41.4,61.5,41.6,60.7,41.7z M64.6,41.3c-0.9-0.9-2.1-1.1-2.9-1.1c-0.2,0-0.3-0.1-0.3-0.3V35
		c0-0.1,0-0.2,0.1-0.2c0.1-0.1,0.1-0.1,0.2-0.1h0c0.8,0,2.1,0.2,2.8,1.3c0,0,0,0.1,0,0.2V41.3z M65.1,36.2c0-0.1,0-0.1,0-0.2
		c0.7-1.2,2.1-1.3,2.8-1.3h0c0.1,0,0.2,0,0.2,0.1c0.1,0.1,0.1,0.1,0.1,0.2v4.9c0,0.2-0.1,0.3-0.3,0.3c-0.8,0-2,0.2-2.9,1.1V36.2z
		 M69.5,41.4c0,0.1,0,0.2-0.1,0.3c-0.1,0.1-0.2,0.1-0.3,0.1c-0.8-0.2-2.2-0.4-3.5-0.1c0.8-0.7,1.9-0.9,2.5-0.9
		c0.5,0,0.8-0.4,0.8-0.8v-4.2h0.2c0.2,0,0.3,0.1,0.3,0.3V41.4z"/>
	<linearGradient id="SVGID_1_" gradientUnits="userSpaceOnUse" x1="42.4265" y1="31.5" x2="42.4265" y2="76.4482">
		<stop  offset="0" style="stop-color:#EEE809"/>
		<stop  offset="6.999274e-02" style="stop-color:#E8E612"/>
		<stop  offset="0.1842" style="stop-color:#DAE22B"/>
		<stop  offset="0.3283" style="stop-color:#C1DB52"/>
		<stop  offset="0.4953" style="stop-color:#A0D189"/>
		<stop  offset="0.5" style="stop-color:#9FD18B"/>
		<stop  offset="0.56" style="stop-color:#96CF8F"/>
		<stop  offset="0.6578" style="stop-color:#7ECA9C"/>
		<stop  offset="0.7814" style="stop-color:#56C3B0"/>
		<stop  offset="0.9244" style="stop-color:#20B8CD"/>
		<stop  offset="1" style="stop-color:#00B2DD"/>
	</linearGradient>
	<path class="st1" d="M53.4,75.4v-4.2v-8.9v-4.1V52v-6.2v-4v-7.1v-2.1c0-0.4-0.2-0.7-0.3-0.8c-0.4-0.4-1.1-0.4-1.5,0
		c-1.1,1.1-2.9,2.2-5,3.5c-6.4,3.9-15.3,9.3-15.3,21.1c0,14,13.7,14,18.2,14c0.2,0,0.6,0.3,0.8,0.4c0.3,0.2,0.6,0.4,0.9,0.5v4.2
		c0,0.6,0.5,1,1,1S53.4,76,53.4,75.4z M34.6,50.1c0.6-1.6,1.4-3,2.3-4.2c0.6,1.7,2.1,3.7,4,5.9c-1,0-2,0.1-3,0.3
		c-1.3,0.2-3.1,0.4-3.4,0C34.4,52,34.1,51.5,34.6,50.1z M33.5,57c0-0.2,0-0.4,0-0.6c0-0.8,0.1-1.6,0.2-2.4c1.1,0.6,2.8,0.4,4.5,0.2
		c2-0.3,4.2-0.5,5.1,0.5c0.6,0.8,1.3,1.6,2,2.4c-2-0.2-4.3,0.3-6.3,0.8c-2,0.5-4.1,1-4.9,0.4C33.9,58,33.6,57.8,33.5,57z M35.3,63.2
		c-0.6-0.8-1-1.8-1.3-2.8c1.5,0.3,3.3-0.1,5.4-0.6c3.3-0.8,6.7-1.5,8.4,0.7c0,0,0,0,0,0c0.4,0.5,0.7,1,1,1.6c-2-0.3-4.3,0.4-6.4,1
		C38.9,64.1,36.7,64.7,35.3,63.2z M49.6,68.2c-3.6,0-7.8-0.3-11-2.1c1.4-0.2,3-0.6,4.4-1c3.8-1.1,6.2-1.7,7.6,0.4
		c0.4,1.1,0.7,2.3,0.8,3.4C50.8,68.6,50.3,68.2,49.6,68.2z M51.4,62.3c-1.7-3.1-4.2-6.1-6.5-9c0,0,0,0,0,0c0,0,0,0,0,0
		c-0.2-0.3-0.5-0.6-0.7-0.8c-3.1-3.6-6.2-7.3-5.3-8.9c0.8-0.8,1.6-1.5,2.5-2.2c0.4,2,2.2,4.1,4.3,6.5c2.7,3.2,5.8,6.7,5.8,10.2V62.3
		z M51.4,52c-1.2-1.9-2.8-3.7-4.2-5.4c-2-2.3-4-4.7-3.9-6.1c0-0.2,0.1-0.6,0.6-1c0.8-0.5,1.5-1,2.3-1.5c0.3,1.4,1.5,2.7,2.8,4.1
		c1.2,1.3,2.5,2.7,2.5,3.7V52z M51.4,41.8c-0.3-0.4-0.6-0.7-0.9-1.1c-1.1-1.2-2.5-2.7-2.3-3.6c0-0.3,0.3-0.5,0.7-0.8c0,0,0,0,0,0
		c1-0.6,1.8-1.1,2.6-1.7V41.8z"/>
	<g>
		<path class="st2" d="M62.8,76.2c0.5,0.2,1.1,0.3,1.7,0.3v-2.2h-1.7V76.2z"/>
		<path class="st2" d="M67,74.3h-1.7v2.2c0.6,0,1.2-0.1,1.7-0.3V74.3z"/>
		<path class="st2" d="M69.9,74.3h-2.1v1.6C68.5,75.5,69.3,75,69.9,74.3z"/>
		<path class="st2" d="M67.7,63.7v1.6h2.1C69.3,64.6,68.5,64,67.7,63.7z"/>
		<path class="st2" d="M62,75.9v-1.6h-2.1C60.5,75,61.2,75.5,62,75.9z"/>
		<path class="st2" d="M70.5,66H59.3c-0.7,1.1-1.1,2.4-1.1,3.8c0,1.4,0.4,2.7,1.1,3.8h11.2c0.7-1.1,1.1-2.4,1.1-3.8
			C71.6,68.4,71.2,67.1,70.5,66z M63.6,72.5c-0.2,0.1-0.5,0-0.5-0.3v-4.8c0-0.3,0.3-0.5,0.5-0.3l4.1,2.4c0.2,0.1,0.2,0.5,0,0.6
			L63.6,72.5z"/>
		<path class="st2" d="M62.8,65.2h1.7V63c-0.6,0-1.2,0.1-1.7,0.3V65.2z"/>
		<path class="st2" d="M59.9,65.2H62v-1.6C61.2,64,60.5,64.6,59.9,65.2z"/>
		<path class="st2" d="M67,63.4c-0.5-0.2-1.1-0.3-1.7-0.3v2.2H67V63.4z"/>
	</g>
	<g>
		<path class="st3" d="M64.9,47.3c-3.7,0-6.7,3-6.7,6.7c0,3.7,3,6.7,6.7,6.7c3.7,0,6.7-3,6.7-6.7C71.6,50.4,68.6,47.3,64.9,47.3z
			 M67,54.4c0.1,0,0.3,0,0.4,0.1l0.2,0.1v-2.2l-3.8,0.8v3.7c0,0.8-0.7,1.4-1.5,1.4s-1.5-0.6-1.5-1.4s0.7-1.4,1.5-1.4
			c0.1,0,0.3,0,0.4,0.1l0.2,0.1v-4.2c0-0.2,0.1-0.4,0.3-0.4l4.7-1c0.1,0,0.3,0,0.4,0.1c0.1,0.1,0.2,0.2,0.2,0.3v5.5
			c0,0.8-0.7,1.4-1.5,1.4c-0.8,0-1.5-0.6-1.5-1.4S66.1,54.4,67,54.4z"/>
	</g>
</g>
</svg>
