<?xml version="1.0" encoding="UTF-8" standalone="no"?>
<!DOCTYPE svg PUBLIC "-//W3C//DTD SVG 1.1//EN" "http://www.w3.org/Graphics/SVG/1.1/DTD/svg11.dtd">
<svg width="100%" height="100%" viewBox="0 0 96 96" version="1.1" xmlns="http://www.w3.org/2000/svg" xmlns:xlink="http://www.w3.org/1999/xlink" xml:space="preserve" xmlns:serif="http://www.serif.com/" style="fill-rule:evenodd;clip-rule:evenodd;stroke-linejoin:round;stroke-miterlimit:2;">
    <g transform="matrix(1.29293,0,0,1.29293,0,0)">
        <g>
            <path d="M37.863,55.078C37.939,53.796 38.251,52.486 38.756,51.163C40.314,48.68 43.152,49.313 47.614,50.652C49.272,51.15 51.024,51.67 52.695,51.851C49.889,53.375 45.811,54.353 39.889,54.353C39.109,54.353 38.451,54.715 37.863,55.078ZM33.357,54.353C29.169,54.353 24.269,53.962 20.517,51.857C22.203,51.681 23.97,51.155 25.645,50.651C30.102,49.313 32.938,48.68 34.493,51.163C35,52.487 35.312,53.797 35.388,55.08C34.798,54.716 34.14,54.353 33.357,54.353ZM16.703,48.442C16.048,47.494 15.523,46.392 15.153,45.123C16.859,45.517 19.024,45.02 21.443,44.46C25.264,43.577 29.214,42.664 31.265,45.295C31.273,45.306 31.285,45.314 31.293,45.325C31.709,45.93 32.102,46.54 32.474,47.152C30.146,46.793 27.452,47.595 24.951,48.346C20.883,49.57 18.259,50.187 16.703,48.442ZM19.959,37.85C22.27,37.554 24.89,37.219 25.917,38.457C26.669,39.347 27.439,40.271 28.201,41.214C25.818,40.98 23.203,41.582 20.9,42.115C18.53,42.663 16.082,43.228 15.136,42.54C15.017,42.453 14.664,42.186 14.556,41.179C14.548,40.946 14.537,40.715 14.537,40.473C14.537,39.498 14.603,38.568 14.717,37.671C16.055,38.335 17.959,38.106 19.959,37.85ZM35.421,23.485C35.065,23.07 34.697,22.657 34.329,22.248C33.051,20.828 31.461,19.062 31.597,18.095C31.639,17.802 31.898,17.505 32.369,17.211C32.371,17.21 32.371,17.209 32.372,17.208C33.486,16.52 34.516,15.866 35.421,15.218L35.421,23.485ZM40.866,17.211C41.337,17.506 41.598,17.804 41.639,18.096C41.776,19.065 40.189,20.831 38.914,22.25C38.548,22.657 38.183,23.068 37.829,23.481L37.829,15.223C38.731,15.871 39.756,16.524 40.865,17.209C40.865,17.21 40.865,17.211 40.866,17.211ZM52.42,25.52C53.705,27.221 49.945,31.654 46.309,35.941C46.031,36.268 45.752,36.598 45.472,36.93C45.471,36.93 45.471,36.93 45.471,36.931L45.47,36.931C42.673,40.241 39.789,43.774 37.829,47.414L37.829,42.582C37.829,38.487 41.419,34.31 44.586,30.624C47.006,27.81 49.139,25.319 49.597,23.002C50.57,23.774 51.512,24.597 52.397,25.483C52.406,25.495 52.411,25.508 52.42,25.52ZM58.712,40.473C58.712,40.675 58.71,40.88 58.705,41.087C58.61,42.175 58.237,42.45 58.114,42.54C57.169,43.228 54.718,42.663 52.349,42.115C50.047,41.582 47.432,40.98 45.05,41.214C45.812,40.271 46.581,39.347 47.334,38.457C48.359,37.22 50.978,37.553 53.292,37.85C55.294,38.105 57.201,38.335 58.539,37.669C58.648,38.565 58.712,39.496 58.712,40.473ZM57.331,32.835C57.335,32.851 57.336,32.867 57.341,32.882C57.996,34.82 57.69,35.332 57.623,35.415C57.206,35.923 55.12,35.655 53.597,35.461C52.458,35.316 51.26,35.165 50.109,35.165C52.277,32.549 54.023,30.222 54.743,28.189C55.778,29.584 56.661,31.123 57.331,32.835ZM46.547,20.786C47.15,21.268 47.253,21.687 47.279,21.961C47.433,23.618 45.057,26.382 42.76,29.055C41.052,31.043 39.23,33.164 37.829,35.405L37.829,28.2C37.829,27.06 39.356,25.36 40.705,23.859C42.158,22.242 43.543,20.695 43.939,19.103C44.802,19.641 45.677,20.199 46.547,20.786ZM29.298,19.101C29.695,20.693 31.083,22.241 32.539,23.858C33.89,25.359 35.421,27.06 35.421,28.2L35.421,35.408C34.018,33.165 32.193,31.042 30.481,29.053C28.183,26.38 25.805,23.617 25.959,21.959C25.984,21.695 26.086,21.291 26.642,20.827C27.536,20.219 28.427,19.645 29.298,19.101ZM23.647,23.031C24.118,25.34 26.246,27.82 28.656,30.623C31.827,34.309 35.421,38.487 35.421,42.582L35.421,47.414C33.461,43.774 30.577,40.241 27.78,36.931L27.779,36.931C27.779,36.93 27.779,36.93 27.778,36.93C27.498,36.598 27.219,36.268 26.941,35.941C23.362,31.721 19.675,27.366 20.784,25.608C21.691,24.683 22.655,23.828 23.647,23.031ZM18.528,28.241C19.259,30.262 20.991,32.571 23.141,35.165C21.991,35.165 20.793,35.316 19.653,35.461C18.129,35.655 16.044,35.921 15.629,35.415C15.565,35.337 15.298,34.858 15.826,33.162C16.511,31.345 17.438,29.714 18.528,28.241ZM56.752,48.228C56.747,48.236 56.738,48.242 56.732,48.249C55.2,50.239 52.527,49.613 48.306,48.346C45.803,47.593 43.106,46.792 40.776,47.151C41.148,46.54 41.541,45.93 41.957,45.325C41.965,45.314 41.977,45.306 41.985,45.295C44.037,42.664 47.986,43.577 51.807,44.46C54.254,45.026 56.44,45.528 58.157,45.107C57.859,46.177 57.409,47.233 56.752,48.228ZM43.35,15.912C40.884,14.401 38.754,13.097 37.477,11.819C37.006,11.35 36.243,11.35 35.774,11.819C34.518,13.076 32.403,14.369 29.954,15.868C22.432,20.472 12.129,26.776 12.129,40.473C12.129,56.761 28.107,56.761 33.357,56.761C33.541,56.761 34.011,57.055 34.322,57.249C34.661,57.461 35.025,57.685 35.421,57.854L35.421,62.721C35.421,63.386 35.96,63.925 36.625,63.925C37.29,63.925 37.829,63.386 37.829,62.721L37.829,57.854C38.224,57.684 38.587,57.46 38.926,57.249C39.237,57.055 39.706,56.761 39.889,56.761C45.14,56.761 61.121,56.761 61.121,40.473C61.121,26.794 50.85,20.504 43.35,15.912Z" style="fill:white;fill-rule:nonzero;"/>
        </g>
    </g>
</svg>
